<svg id="Laag_1" data-name="Laag 1" xmlns="http://www.w3.org/2000/svg" viewBox="0 0 493.08 500"><defs><style>.cls-1{fill:#353535;}</style></defs><path class="cls-1" d="M89.59,77.23a10,10,0,0,0-6.09,3l-18.9,19a10,10,0,0,0-3,7V393.57a10,10,0,0,0,3,7l18.9,19.21a10,10,0,0,0,7,3h56.7a10,10,0,1,0,.28-20,1.31,1.31,0,0,0-.28,0H94.75L81.63,389.51V110.34L94.75,97.22h52.48a10,10,0,1,0,.28-20h-57C90.22,77.22,89.91,77.22,89.59,77.23Zm246,78.38a10,10,0,0,0-9.21,10v65H166.13c-.31,0-.63,0-.94,0a10,10,0,1,0,.94,20H326.38v65a10,10,0,0,0,16.56,7.5l85.12-75a10,10,0,0,0,.88-14.11,10.44,10.44,0,0,0-.88-.88l-85.12-75A10,10,0,0,0,335.59,155.61Zm10.78,32,60.14,53-60.14,52.95Z"/></svg>