<svg id="Laag_1" data-name="Laag 1" xmlns="http://www.w3.org/2000/svg" viewBox="0 0 493.08 500"><defs><style>.cls-1{fill:#353535;}</style></defs><path class="cls-1" d="M393.79,163.73a72.46,72.46,0,0,1-20.51,10.93C337.74,187,279,187,242.05,174.66c-8.2-2.73-13.67-6.83-19.14-10.93V176c8.21,1.37,15,2.73,20.51,5.47,19.14,6.83,30.07,16.4,30.07,28.7V217c4.1,0,8.2,0,12.31,1.37,26,2.73,58.78,0,84.75-8.21,13.67-5.46,23.24-12.3,23.24-19.13Zm-23.24,0c13.67-4.1,23.24-10.94,23.24-17.77V118.62c-5.47,4.1-12.31,6.83-20.51,9.57-35.54,13.67-94.32,13.67-131.23,0-8.2-2.74-13.67-5.47-19.14-9.57V146c0,6.83,8.21,13.67,23.24,17.77C280.33,176,336.37,176,370.55,163.73Zm-108,109.36c-4.1,4.1-10.94,8.2-19.14,10.93-36.91,12.3-94.32,12.3-131.23,0-8.2-2.73-15-6.83-19.14-10.93v27.34c0,6.83,8.2,13.67,23.24,19.13,34.17,12.31,88.85,12.31,124.39,0,13.67-5.46,21.88-12.3,21.88-19.13Zm-21.88,0c13.67-4.1,21.88-10.94,21.88-17.77V228c-4.1,4.1-10.94,6.83-19.14,9.56-36.91,13.67-94.32,13.67-131.23,0-8.2-2.73-15-5.46-19.14-9.56v27.34c0,6.83,8.2,13.67,23.24,17.77C150.46,285.39,205.14,285.39,240.68,273.09ZM93.05,319.56V346.9c0,5.47,8.2,12.31,23.24,17.77,34.17,12.31,88.85,12.31,124.39,0,13.67-5.46,21.88-12.3,21.88-17.77V319.56c-4.1,4.1-10.94,6.84-19.14,9.57-36.91,13.67-94.32,13.67-131.23,0C104,326.4,97.15,323.66,93.05,319.56ZM82.11,346.9V210.2c0-12.3,10.94-21.87,30.08-28.7,28.7-10.94,68.35-12.31,99.79-8.2V100.85c0-12.31,12.3-21.88,30.07-28.71,36.91-13.67,95.69-13.67,131.23,0,19.14,6.83,30.08,16.4,30.08,28.71v181.8c0,10.94-10.94,21.88-30.08,28.71-26,9.57-60.14,10.94-88.85,8.2-4.1,0-6.84,0-10.94-1.36v28.7c0,10.94-10.93,20.51-30.07,27.34-36.91,13.67-94.32,13.67-131.23,0C93.05,367.41,82.11,357.84,82.11,346.9ZM273.49,228v34.17c4.1,0,8.2,1.37,12.31,1.37,26,2.73,58.78,1.36,84.75-8.2,13.67-5.47,23.24-12.31,23.24-17.78V210.2c-5.47,2.74-12.31,6.84-20.51,9.57-26,9.57-60.14,12.31-88.85,9.57C280.33,228,277.59,228,273.49,228Zm0,45.11v34.17c4.1,1.37,8.2,1.37,12.31,1.37,26,2.73,58.78,1.36,84.75-8.2,13.67-4.11,23.24-10.94,23.24-17.78V255.32c-5.47,4.1-12.31,6.83-20.51,9.56-26,9.57-60.14,12.31-88.85,9.57C280.33,274.45,277.59,273.09,273.49,273.09ZM370.55,81.71c-34.18-12.31-90.22-12.31-124.4,0-15,5.47-23.24,12.3-23.24,19.14,0,5.46,8.21,12.3,23.24,17.77,34.18,12.3,90.22,12.3,124.4,0,13.67-5.47,23.24-12.31,23.24-17.77C393.79,94,384.22,87.18,370.55,81.71ZM240.68,191.07c-35.54-12.31-90.22-12.31-124.39,0-15,5.46-23.24,12.3-23.24,19.13,0,5.47,8.2,12.31,23.24,17.78,34.17,12.3,88.85,12.3,124.39,0,13.67-5.47,21.88-12.31,21.88-17.78C262.56,203.37,254.35,196.53,240.68,191.07Z"/><path class="cls-1" d="M410.23,354.77l0-.2a.76.76,0,0,0,0-.16,1.24,1.24,0,0,0,0-.16,1.46,1.46,0,0,0-.07-.19l-.05-.15a1.09,1.09,0,0,1-.08-.15l-.1-.18-.09-.13-.11-.15-.07-.09-.06,0-.11-.12-.05-.05L383,329.48a2.73,2.73,0,0,0-3.64,4.08l21,18.73H287.22a2.74,2.74,0,0,0,0,5.47H400.34l-21,18.73a2.73,2.73,0,1,0,3.63,4.09h0l26.37-23.5.05-.06.11-.12.06,0a.61.61,0,0,1,.07-.1l.11-.15.09-.13.1-.17c0-.05.05-.1.08-.16s0-.09.05-.14a1.59,1.59,0,0,0,.07-.2.94.94,0,0,0,0-.16.8.8,0,0,0,0-.15l0-.2c0-.07,0-.13,0-.19s0-.05,0-.07,0,0,0-.08S410.23,354.83,410.23,354.77Z"/><path class="cls-1" d="M381.15,382h-.21a3.45,3.45,0,0,1-2.08-6l19.6-17.48H287.22a3.45,3.45,0,0,1,0-6.9H398.46L378.85,334.1a3.47,3.47,0,0,1-.27-4.87,3.44,3.44,0,0,1,4.87-.28l26.46,23.61.11.1.07.07.1.13.14.18.09.14.14.25.1.18c0,.06,0,.1.06.15l.1.29c0,.09,0,.14.05.2a1.42,1.42,0,0,1,0,.2l0,.25a1.64,1.64,0,0,1,0,.23.77.77,0,0,1,0,.1v.13s0,.12,0,.2l0,.24a1.18,1.18,0,0,1,0,.2,1.21,1.21,0,0,1-.05.18,2.83,2.83,0,0,1-.09.27l-.07.19a1.09,1.09,0,0,1-.08.15l-.14.26-.11.17-.12.15-.12.15-.11.11a.59.59,0,0,1-.11.1h0s0,0-.05.06l-26.37,23.52A3.45,3.45,0,0,1,381.15,382Zm-93.93-29a2,2,0,1,0,0,4h115l-22.41,20a2,2,0,0,0-.17,2.85,2,2,0,0,0,1.39.68,2,2,0,0,0,1.42-.48l0,0,26.37-23.51,0,0,.08-.09,0,0,0-.06.13-.18a1,1,0,0,0,.09-.15l.72.17-.66-.29,0-.11c0-.05,0-.09,0-.14l0-.12s0-.07,0-.11a.77.77,0,0,1,0-.15.61.61,0,0,1,0-.14V355a.57.57,0,0,1,0-.13h0a.77.77,0,0,1,0-.15s0-.07,0-.1l0-.09a.93.93,0,0,0-.06-.18l-.08-.18a.82.82,0,0,0-.09-.17l-.11-.16-.09-.12,0,0-.08-.07-.07-.07L382.49,330a2,2,0,0,0-2.84.16,2,2,0,0,0,.16,2.85l22.41,20Zm121.85,3.31Zm-.26-2.85h0Z"/><path class="cls-1" d="M407.52,407.81H294.4l21-18.73a2.73,2.73,0,0,0-3.63-4.08L285.4,408.5l0,.06a.57.57,0,0,0-.11.11l-.06.05s0,.07-.07.1L285,409l-.08.14a1,1,0,0,0-.1.17,1.09,1.09,0,0,0-.08.15l-.06.15-.06.2a.75.75,0,0,0-.05.16l0,.15a1.36,1.36,0,0,0,0,.2c0,.06,0,.12,0,.18v.16c0,.06,0,.12,0,.18a1.36,1.36,0,0,0,0,.2l0,.15a1.09,1.09,0,0,0,.05.17l.06.19.06.15a1.09,1.09,0,0,0,.08.15,1,1,0,0,0,.1.17l.08.14.12.14s0,.07.07.1,0,0,.05.05l.12.12,0,.05,26.37,23.51a2.73,2.73,0,0,0,3.64-4.08h0l-21-18.73H407.52a2.73,2.73,0,0,0,0-5.46Z"/><path class="cls-1" d="M313.59,437.5a3.44,3.44,0,0,1-2.3-.88L284.82,413l-.11-.11-.07-.07-.09-.13a1.77,1.77,0,0,1-.14-.17l-.09-.14a1.83,1.83,0,0,1-.15-.25,1.54,1.54,0,0,1-.09-.19,1,1,0,0,1-.07-.15c0-.12-.07-.2-.09-.28l-.06-.21,0-.19a2.17,2.17,0,0,1,0-.25c0-.07,0-.15,0-.23a.58.58,0,0,1,0-.1v-.14s0-.11,0-.19,0-.16,0-.25l0-.19c0-.06,0-.11.05-.16a2,2,0,0,1,.09-.29l.08-.19a.89.89,0,0,1,.08-.17,1.7,1.7,0,0,1,.14-.24l.11-.18.12-.14.11-.15.11-.11.11-.11h0l.06-.06,26.37-23.51a3.45,3.45,0,0,1,4.59,5.15l-19.6,17.48H407.52a3.45,3.45,0,1,1,0,6.9H296.27l19.61,17.48a3.45,3.45,0,0,1-2.29,6ZM285.9,412.07l26.34,23.48a2,2,0,0,0,1.46.51,2,2,0,0,0,1.9-2.12,2,2,0,0,0-.67-1.4l-22.41-20h115a2,2,0,0,0,0-4h-115l22.41-20a2,2,0,0,0-2.69-3L285.88,409s0,0,0,0l-.09.09,0,0-.05.07-.13.17-.1.16-.1.23s0,.09,0,.14l-.05.23a.77.77,0,0,0,0,.15s0,.09,0,.14v.11s0,.08,0,.13a.77.77,0,0,0,0,.15l.06.24a1,1,0,0,0,0,.14h0l.08.18c.05.08.07.13.1.17l.05.09.06.07c.05.05.07.09.09.11l0,0,.09.1Zm0,0h0Zm-.05,0h0Z"/></svg>