<svg id="Laag_1" data-name="Laag 1" xmlns="http://www.w3.org/2000/svg" viewBox="0 0 493.08 500.61"><defs><style>.cls-1{fill:#ddb740;}.cls-2{fill:#353535;}</style></defs><path class="cls-1" d="M101.3,198.84c8.78-11.2,23-16.67,36.8-19.93,27-6.35,55.33-6.12,82.7-1.52,10.34,1.74,20.67,4.13,30.09,8.71,5.53,2.69,11,6.41,13.52,12,1.67,3.64,2,7.74,2.21,11.74a682.76,682.76,0,0,1-.07,82.55c-.56,9.11,2.65,18.88,1.77,28s-4.27,18.27-11.07,24.36c-5.23,4.68-12,7.18-18.75,9.2a187.53,187.53,0,0,1-119.92-4.41c-5.07-1.94-10.24-4.24-13.78-8.36-3.93-4.59-5.29-10.81-6.2-16.79-4.26-27.81-1.8-56.16.68-84.18C100.48,226.58,92.88,209.58,101.3,198.84Z"/><path class="cls-1" d="M220.87,103.59c8.77-13.93,22.95-20.74,36.79-24.79,27-7.9,55.34-7.62,82.71-1.89C350.7,79.07,361,82,370.46,87.75c5.53,3.34,11,8,13.52,14.92,1.67,4.53,2,9.63,2.2,14.6,1.64,34.19,1.62,68.5-.06,102.69-.56,11.34,2.65,23.48,1.77,34.79s-4.27,22.73-11.08,30.3c-5.23,5.83-12,8.94-18.74,11.45A153.06,153.06,0,0,1,238.14,291c-5.07-2.41-10.24-5.26-13.77-10.39-3.93-5.71-5.29-13.45-6.21-20.88-4.26-34.6-1.79-69.86.68-104.73C220,138.09,212.44,117,220.87,103.59Z"/><path class="cls-2" d="M383.11,161.64a67.23,67.23,0,0,1-19,10.14c-33,11.41-87.48,11.41-121.71,0-7.61-2.53-12.68-6.34-17.75-10.14v11.41c7.6,1.27,13.94,2.54,19,5.07,17.74,6.34,27.89,15.22,27.89,26.63v6.34c3.8,0,7.6,0,11.41,1.26,24.09,2.54,54.51,0,78.6-7.6,12.68-5.07,21.56-11.41,21.56-17.75Zm-21.56,0c12.68-3.8,21.56-10.14,21.56-16.48V119.8c-5.08,3.81-11.41,6.34-19,8.88-33,12.68-87.48,12.68-121.71,0-7.61-2.54-12.68-5.07-17.75-8.88v25.36c0,6.34,7.6,12.68,21.55,16.48C277.88,173.05,329.86,173.05,361.55,161.64ZM261.39,263.07c-3.8,3.8-10.14,7.6-17.74,10.14-34.24,11.41-87.48,11.41-121.72,0-7.6-2.54-13.94-6.34-17.75-10.14v25.35c0,6.34,7.61,12.68,21.56,17.75,31.69,11.41,82.41,11.41,115.37,0,12.68-5.07,20.28-11.41,20.28-17.75Zm-20.28,0c12.68-3.81,20.28-10.15,20.28-16.48V221.23c-3.8,3.8-10.14,6.34-17.74,8.87-34.24,12.68-87.48,12.68-121.72,0-7.6-2.53-13.94-5.07-17.75-8.87v25.36c0,6.33,7.61,12.67,21.56,16.48C157.43,274.48,208.15,274.48,241.11,263.07Zm-136.93,43.1v25.36c0,5.07,7.61,11.41,21.56,16.48,31.69,11.41,82.41,11.41,115.37,0,12.68-5.07,20.28-11.41,20.28-16.48V306.17c-3.8,3.81-10.14,6.34-17.74,8.88-34.24,12.68-87.48,12.68-121.72,0C114.33,312.51,108,310,104.18,306.17ZM94,331.53V204.75c0-11.41,10.14-20.29,27.89-26.63,26.63-10.14,63.4-11.41,92.56-7.6v-67.2c0-11.41,11.41-20.28,27.89-26.62C276.61,64,331.12,64,364.09,76.7,381.84,83,392,91.91,392,103.32V271.94c0,10.14-10.14,20.29-27.89,26.63-24.09,8.87-55.79,10.14-82.41,7.6-3.8,0-6.34,0-10.14-1.26v26.62c0,10.14-10.15,19-27.89,25.36-34.24,12.67-87.48,12.67-121.72,0C104.18,350.55,94,341.67,94,331.53Zm177.5-110.3v31.69c3.8,0,7.6,1.27,11.41,1.27,24.09,2.54,54.51,1.27,78.6-7.6,12.68-5.08,21.56-11.41,21.56-16.49V204.75c-5.08,2.53-11.41,6.34-19,8.87C340,222.5,308.3,225,281.68,222.5,277.88,221.23,275.34,221.23,271.54,221.23Zm0,41.84v31.69c3.8,1.27,7.6,1.27,11.41,1.27,24.09,2.54,54.51,1.27,78.6-7.61,12.68-3.8,21.56-10.14,21.56-16.48V246.59c-5.08,3.8-11.41,6.33-19,8.87-24.09,8.88-55.79,11.41-82.41,8.88C277.88,264.34,275.34,263.07,271.54,263.07Zm90-177.5c-31.69-11.41-83.67-11.41-115.37,0-14,5.07-21.55,11.41-21.55,17.75,0,5.07,7.6,11.41,21.55,16.48,31.7,11.41,83.68,11.41,115.37,0,12.68-5.07,21.56-11.41,21.56-16.48C383.11,97,374.23,90.64,361.55,85.57ZM241.11,187c-33-11.41-83.68-11.41-115.37,0-13.95,5.07-21.56,11.41-21.56,17.75,0,5.07,7.61,11.41,21.56,16.48,31.69,11.41,82.41,11.41,115.37,0,12.68-5.07,20.28-11.41,20.28-16.48C261.39,198.41,253.79,192.07,241.11,187Z"/><path class="cls-2" d="M398.35,338.82a1.1,1.1,0,0,0,0-.18l0-.14a.75.75,0,0,0,0-.16l-.06-.18s0-.09-.05-.13a.64.64,0,0,0-.08-.14.7.7,0,0,0-.09-.17l-.08-.12a1.34,1.34,0,0,0-.11-.14s0-.06-.06-.08l-.05-.05-.11-.11,0-.05-24.46-21.8a2.54,2.54,0,1,0-3.37,3.79l19.48,17.37H284.27a2.54,2.54,0,1,0,0,5.07H389.18L369.7,359a2.54,2.54,0,1,0,3.37,3.79h0L397.53,341l0-.06.11-.1.05-.05a.47.47,0,0,0,.06-.09l.11-.13.08-.13a.51.51,0,0,0,.09-.16,1,1,0,0,0,.08-.14l.05-.14.06-.18a.83.83,0,0,0,0-.15l0-.14a1.1,1.1,0,0,0,0-.18c0-.06,0-.12,0-.18V339C398.36,338.94,398.36,338.88,398.35,338.82Z"/><path class="cls-2" d="M371.39,364.07h-.2a3.2,3.2,0,0,1-1.93-5.59l18.18-16.21H284.27a3.2,3.2,0,1,1,0-6.4H387.44l-18.18-16.21a3.2,3.2,0,0,1-.26-4.51,3.18,3.18,0,0,1,4.51-.26l24.55,21.89.1.1h0l.06.05.1.14a1.33,1.33,0,0,1,.12.16l.1.14a1.64,1.64,0,0,1,.12.22l.1.18.06.15c0,.09.05.17.08.25s0,.13.05.19l0,.14c0,.11,0,.19,0,.27h0l-.67.06.67-.05c0,.07,0,.14,0,.21a.28.28,0,0,1,0,.08v.14s0,.09,0,.16l0,.24,0,.18c0,.06,0,.11,0,.17s-.06.18-.09.26a.77.77,0,0,1-.07.16,1,1,0,0,1-.07.15,2.09,2.09,0,0,1-.13.23l-.1.15-.11.15-.12.15-.08.07-.11.12a.2.2,0,0,1,0,.05l-24.46,21.81A3.21,3.21,0,0,1,371.39,364.07Zm-87.12-26.88a1.87,1.87,0,0,0,0,3.74H390.93l-20.79,18.54a1.87,1.87,0,0,0,2.49,2.8l24.45-21.81,0,0,.12-.12,0-.06.13-.17.08-.14.08-.18a.71.71,0,0,0,.05-.16l.05-.18a1.28,1.28,0,0,0,0-.17.49.49,0,0,0,0-.12v-.06a.09.09,0,0,1,0-.05.49.49,0,0,0,0-.12l.66-.07-.66.06s0-.09,0-.13l-.05-.19a.86.86,0,0,0-.05-.15l-.07-.17-.09-.17-.11-.14-.08-.11-.19-.2-24.41-21.75a1.84,1.84,0,0,0-1.35-.47,1.87,1.87,0,0,0-1.14,3.26l20.79,18.53Z"/><path class="cls-2" d="M395.84,388H290.92l19.49-17.37a2.54,2.54,0,0,0-3.38-3.78l-24.45,21.8-.05,0-.1.11-.05,0-.07.09a1.34,1.34,0,0,1-.11.14.83.83,0,0,1-.08.12l-.09.16-.07.15a.5.5,0,0,0,0,.13.64.64,0,0,0-.06.18.88.88,0,0,0-.05.15.78.78,0,0,0,0,.14l0,.19c0,.06,0,.11,0,.17s0,0,0,.07,0,.05,0,.07,0,.11,0,.17l0,.19a.68.68,0,0,0,0,.14.88.88,0,0,0,.05.15.64.64,0,0,0,.06.18.78.78,0,0,0,0,.14s.05.09.07.14l.09.16.08.12a1.34,1.34,0,0,1,.11.14l.07.09.05,0,.1.11.05.05L307,414.24a2.54,2.54,0,0,0,3.39-3.78h0l-19.49-17.37H395.84a2.54,2.54,0,0,0,0-5.08Z"/><path class="cls-2" d="M308.72,415.55a3.21,3.21,0,0,1-2.13-.81l-24.54-21.9-.11-.1-.06-.06-.09-.12-.13-.16-.09-.14c-.05-.09-.09-.15-.12-.22a1.88,1.88,0,0,1-.1-.19,1.38,1.38,0,0,1-.06-.16,1.55,1.55,0,0,1-.08-.23,1.08,1.08,0,0,1,0-.19l0-.15c0-.11,0-.19,0-.27a1.48,1.48,0,0,1,0-.21h0s0-.05,0-.09v-.13a1.23,1.23,0,0,1,0-.17l0-.24,0-.18a1.36,1.36,0,0,1,0-.17c0-.1.06-.17.09-.25l.06-.17.08-.14a2.39,2.39,0,0,1,.13-.24l.1-.15.11-.15.12-.14.09-.09a.88.88,0,0,1,.1-.1s0,0,.05-.06l24.46-21.81a3.2,3.2,0,0,1,4.26,4.78l-18.18,16.21H395.84a3.2,3.2,0,1,1,0,6.4H292.67L310.85,410a3.2,3.2,0,0,1-2.13,5.59Zm-25.85-23.76.19.2,24.42,21.76A1.87,1.87,0,1,0,310,411l-20.79-18.54H395.84a1.87,1.87,0,0,0,0-3.74H289.18L310,370.15a1.88,1.88,0,0,0-2.5-2.8L283,389.15s0,0,0,.05l-.07.07-.05,0,0,.06-.13.17a.74.74,0,0,0-.08.15l-.08.17c0,.07,0,.12-.06.16l0,.18c0,.08,0,.13,0,.18v.17a.07.07,0,0,0,0,.05v.13s0,.09,0,.14l0,.18a.91.91,0,0,0,.06.16l.07.16a.82.82,0,0,0,.09.17l.06.09.05.07A.36.36,0,0,1,282.87,391.79Z"/></svg>