<svg id="Laag_1" data-name="Laag 1" xmlns="http://www.w3.org/2000/svg" viewBox="0 0 490.51 500"><defs><style>.cls-1{fill:#b87d4a;}.cls-2{fill:#353535;}</style></defs><path class="cls-1" d="M159.56,124.87c27.32,2.56,55.67,5.94,81.58-3.08,16.37-5.7,30.78-16.07,47.07-22,3-1.09,6.23-2,9.27-1.12,6,1.81,7.68,9.31,10.95,14.69,5.65,9.29,17.42,12.88,28.28,13.54s21.93-.83,32.52,1.66c4.84,1.14,9.64,3.21,13,6.89,3.93,4.32,5.4,10.3,6.27,16.07a111.54,111.54,0,0,1-4.87,53c-1.8,5.19-3.7,11.73.28,15.5a11.64,11.64,0,0,0,5.42,2.52c11.28,2.73,25.34,1.68,31.87,11.28,3.47,5.11,3.48,11.75,3.12,17.92a239.15,239.15,0,0,1-6.83,44.67c-.72,2.84-1.56,5.8-3.62,7.88-6.11,6.14-18.29.79-24.31,7-3.43,3.54-3.12,9.12-2.74,14a235.9,235.9,0,0,1-2.24,55.24c-1.16,7.3-3.28,15.43-9.7,19.09-3.69,2.11-8.13,2.3-12.38,2.43Q261.79,405.13,161,404.54c-23.22-.13-46.56-.42-69.43-4.44-8.41-1.48-17.78-4.25-21.62-11.88-1.86-3.68-2.08-8-2.27-12.07-.71-15.65-1.42-31.32-1.18-47C67,299,71,268.78,69.62,238.59c-.83-18.21-3.6-36.34-3.48-54.57.13-19.26,2.07-47.58,22.72-54.85C111.46,121.21,136.1,122.68,159.56,124.87Z"/><path class="cls-2" d="M345,216.51l25.17-1.1c4.37-1.09,8.75-5.47,8.75-10.94V173.84H107.59c-5.47,0-9.85-4.38-9.85-8.76a9.8,9.8,0,0,1,9.85-9.84h50.33l35-16.41H92.27a12.14,12.14,0,0,0-12,12v232a12.14,12.14,0,0,0,12,12H366.89a12.14,12.14,0,0,0,12-12V329.2a12.14,12.14,0,0,0-12-12h-37.2c-16.41,0-29.54-13.13-29.54-30.64V246.05C300.15,218.7,323.13,216.51,345,216.51ZM200.59,155.24H320.94l-23-46Zm141.14,0h37.2v-4.38a12.14,12.14,0,0,0-12-12H333Zm-17.51-35h42.67c16.42,0,29.55,14.22,29.55,30.63v53.61c0,4.38,0,7.66-2.19,12h6.56c16.41,0,30.64,13.13,30.64,29.54v40.48c0,16.41-14.23,30.64-30.64,30.64h-6.56c2.19,3.28,2.19,7.66,2.19,12v53.62a29.42,29.42,0,0,1-29.55,29.54H92.27c-16.41,0-30.64-13.13-30.64-29.54v-232c0-16.41,14.23-30.63,30.64-30.63h139L299.06,88.5c4.37-2.19,9.85,0,12,4.37Zm76.59,114.88H329.69c-6.56,0-10.94,4.38-10.94,10.94v40.48c0,6.57,4.38,12,10.94,12h71.12a12.14,12.14,0,0,0,12-12V246.05C412.85,239.49,407.38,235.11,400.81,235.11Z"/><circle class="cls-2" cx="351.58" cy="266.84" r="14.22"/></svg>