<svg id="Laag_1" data-name="Laag 1" xmlns="http://www.w3.org/2000/svg" viewBox="0 0 493.08 500"><defs><style>.cls-1{fill:#353535;}</style></defs><path class="cls-1" d="M344.56,216.66l25.05-1.08c4.36-1.09,8.71-5.45,8.71-10.89v-30.5H108.23c-5.44,0-9.8-4.35-9.8-8.71a9.76,9.76,0,0,1,9.8-9.8h50.1l34.85-16.34H93a12.09,12.09,0,0,0-12,12V382.2a12.08,12.08,0,0,0,12,12H366.34a12.08,12.08,0,0,0,12-12V328.84a12.08,12.08,0,0,0-12-12h-37c-16.33,0-29.4-13.07-29.4-30.5V246.07C299.91,218.84,322.78,216.66,344.56,216.66Zm-143.76-61H320.6l-22.87-45.74Zm140.49,0h37v-4.36a12.09,12.09,0,0,0-12-12H332.58Zm-17.42-34.85h42.47c16.34,0,29.41,14.16,29.41,30.49v53.37c0,4.35,0,7.62-2.18,12h6.53c16.34,0,30.5,13.07,30.5,29.41v40.29c0,16.34-14.16,30.5-30.5,30.5h-6.53c2.18,3.27,2.18,7.62,2.18,12V382.2a29.29,29.29,0,0,1-29.41,29.41H93c-16.34,0-30.5-13.07-30.5-29.41V151.32c0-16.33,14.16-30.49,30.5-30.49H231.3l67.52-31.59c4.36-2.17,9.8,0,12,4.36ZM400.1,235.18H329.31c-6.53,0-10.89,4.36-10.89,10.89v40.29c0,6.54,4.36,12,10.89,12H400.1a12.08,12.08,0,0,0,12-12V246.07C412.08,239.54,406.64,235.18,400.1,235.18Z"/><circle class="cls-1" cx="351.1" cy="266.76" r="14.16"/></svg>